<?xml version="1.0" encoding="UTF-8" standalone="no"?>
<svg
   xmlns:dc="http://purl.org/dc/elements/1.1/"
   xmlns:cc="http://creativecommons.org/ns#"
   xmlns:rdf="http://www.w3.org/1999/02/22-rdf-syntax-ns#"
   xmlns:svg="http://www.w3.org/2000/svg"
   xmlns="http://www.w3.org/2000/svg"
   xmlns:sodipodi="http://sodipodi.sourceforge.net/DTD/sodipodi-0.dtd"
   xmlns:inkscape="http://www.inkscape.org/namespaces/inkscape"
   version="1.1"
   width="139.40495pt"
   height="266.48917pt"
   viewBox="0 0 139.40495 266.48917"
   id="svg1075"
   sodipodi:docname="bottle.svg"
   inkscape:version="1.0.1 (c497b03c, 2020-09-10)">
  <metadata
     id="metadata1081">
    <rdf:RDF>
      <cc:Work
         rdf:about="">
        <dc:format>image/svg+xml</dc:format>
        <dc:type
           rdf:resource="http://purl.org/dc/dcmitype/StillImage" />
        <dc:title />
      </cc:Work>
    </rdf:RDF>
  </metadata>
  <defs
     id="defs1079">
    <clipPath
       id="cp0">
      <path
         transform="matrix(1,0,0,-1,0,221)"
         d="M 0,0 H 347 V 221 H 0 Z"
         id="path976" />
    </clipPath>
    <clipPath
       id="cp1">
      <path
         transform="matrix(1,0,0,-1,0,221)"
         d="M -0.904785,-5.18457 H 347 V 221.816 H -0.904785 Z"
         id="path979" />
    </clipPath>
    <clipPath
       id="cp2">
      <path
         transform="matrix(1,0,0,-1,0,221)"
         d="M 0,0 H 347 V 221 H 0 Z"
         id="path982" />
    </clipPath>
    <clipPath
       id="cp3">
      <path
         transform="matrix(1,0,0,-1,0,221)"
         d="M 0,0.059 H 346.695 V 220.58802 H 0 Z"
         id="path1001" />
    </clipPath>
    <clipPath
       id="cp4">
      <path
         transform="matrix(1,0,0,-1,0,221)"
         d="M 49.076,219.986 C 45.237,201.367 43.572,180.732 37.842,162.27 33.547,148.432 26.335,138.584 20.68,127.643 c -2.016,-3.905 -3.482,-8.61 -5.26,-12.448 -1.01,-4.321 -2.02,-8.644 -3.03,-12.97 C 9.983,81.086 6.162,58.912 2.648,36.112 1.561,29.063 -0.905,20.279 0.346,14.77 2.315,6.092 17.761,0.675 31.565,0.059 h 5.127 c 7.277,0.346 13.467,2.222 16.003,5.891 3.809,5.512 3.807,16.351 5.276,25.443 1.364,8.457 5.661,34.088 6.379,39.692 C 64.416,71.608 61.43,53.846 61.454,53.486 60.004,46.932 58.437,40.072 57.074,33.308 55.235,24.178 54.598,13.38 49.965,8.639 41.179,-0.348 3.743,7.393 2.256,21.502 1.646,27.289 5.328,39.938 6.893,47.088 10.494,63.55 13.9,80.75 17.197,98.364 c 1.596,8.531 3.629,16.519 7.199,23.624 3.6,7.159 8.165,12.192 11.553,17.815 7.418,12.31 12.024,26.672 15.841,46.222 1.3,6.66 2.392,20.548 4.659,22.528 1.258,1.097 3.778,0.354 6.215,-0.39 2.036,-0.621 4.015,-1.242 5.154,-0.79 0.594,2.032 0.448,6.701 0.508,8.399 -0.609,0.81 -2.187,0.164 -2.754,1.003 -3.184,0.744 -6.181,1.913 -9.47,2.032 -1.955,0.071 -4.017,1.781 -5.645,1.781 -0.508,0 -0.974,-0.167 -1.381,-0.602"
         id="path1008" />
    </clipPath>
    <clipPath
       id="cp5">
      <path
         transform="matrix(1,0,0,-1,0,221)"
         d="m 73.451,203.193 v -71.562 h 21.925 c 13.003,0 22.873,6.264 22.873,20.31 0,7.876 -3.796,16.42 -12.243,17.938 4.461,2.848 6.264,8.731 6.264,13.857 0,14.237 -8.163,19.457 -21.45,19.457 z m 13.952,-11.201 h 1.804 c 5.885,0 10.061,-1.897 10.061,-9.205 0,-7.403 -3.323,-9.396 -10.157,-9.396 h -1.708 z m 0,-29.231 h 2.279 c 7.023,0 14.615,-0.38 14.615,-9.681 0,-9.301 -6.453,-10.25 -13.951,-10.25 h -2.943 z"
         id="path1015" />
    </clipPath>
    <clipPath
       id="cp6">
      <path
         transform="matrix(1,0,0,-1,0,221)"
         d="m 122.332,154.883 c 0,-14.426 9.871,-24.772 24.486,-24.772 14.617,0 24.488,10.346 24.488,24.772 0,14.52 -9.967,24.867 -24.488,24.867 -14.521,0 -24.486,-10.347 -24.486,-24.867 m 13.477,0 c 0,6.454 4.176,13.098 11.009,13.098 6.834,0 11.01,-6.644 11.01,-13.098 0,-6.264 -4.176,-13.003 -11.01,-13.003 -6.833,0 -11.009,6.739 -11.009,13.003"
         id="path1022" />
    </clipPath>
    <clipPath
       id="cp7">
      <path
         transform="matrix(1,0,0,-1,0,221)"
         d="m 179.185,193.986 v -15.755 h -4.557 v -11.2 h 4.557 v -35.4 h 13.286 v 35.4 h 8.162 v 11.2 h -8.162 v 15.755 z"
         id="path1029" />
    </clipPath>
    <clipPath
       id="cp8">
      <path
         transform="matrix(1,0,0,-1,0,221)"
         d="m 205.188,193.986 v -15.755 h -4.555 v -11.2 h 4.555 v -35.4 h 13.289 v 35.4 h 8.162 v 11.2 h -8.162 v 15.755 z"
         id="path1036" />
    </clipPath>
    <clipPath
       id="cp9">
      <path
         transform="matrix(1,0,0,-1,0,221)"
         d="m 229.581,131.631 h 13.28799 v 80.482 H 229.581 Z"
         id="path1043" />
    </clipPath>
    <clipPath
       id="cp10">
      <path
         transform="matrix(1,0,0,-1,0,221)"
         d="m 248.944,154.504 c 0,-14.144 8.828,-24.393 23.252,-24.393 9.776,0 17.938,5.221 21.164,14.522 l -12.241,1.993 c -1.805,-3.702 -4.556,-6.358 -8.923,-6.358 -6.928,0 -9.207,6.643 -9.207,12.527 h 30.658 v 1.613 c 0,14.047 -6.834,25.342 -22.115,25.342 -15.091,0 -22.588,-11.105 -22.588,-25.246 m 23.347,15.944 c 5.125,0 8.162,-4.65 8.828,-9.395 H 263.37 c 0.664,4.84 3.606,9.395 8.921,9.395"
         id="path1050" />
    </clipPath>
    <clipPath
       id="cp11">
      <path
         transform="matrix(1,0,0,-1,0,221)"
         d="M 330.661,212.113 V 173.96 h -0.189 c -2.943,3.702 -7.877,5.79 -12.718,5.79 -13.382,0 -21.26,-12.244 -21.26,-24.582 0,-12.623 7.782,-25.057 21.449,-25.057 4.841,0 9.777,2.088 12.529,5.885 h 0.189 v -4.365 h 13.287 v 80.482 z m -20.689,-57.134 c 0,6.263 4.176,13.002 11.008,13.002 6.832,0 11.01,-6.739 11.01,-13.002 0,-6.264 -4.178,-13.099 -11.01,-13.099 -6.832,0 -11.008,6.835 -11.008,13.099"
         id="path1057" />
    </clipPath>
  </defs>
  <sodipodi:namedview
     pagecolor="#ffffff"
     bordercolor="#666666"
     borderopacity="1"
     objecttolerance="10"
     gridtolerance="10"
     guidetolerance="10"
     inkscape:pageopacity="0"
     inkscape:pageshadow="2"
     inkscape:window-width="2047"
     inkscape:window-height="1227"
     id="namedview1077"
     showgrid="false"
     inkscape:zoom="1.3691709"
     inkscape:cx="23.956469"
     inkscape:cy="274.03524"
     inkscape:window-x="0"
     inkscape:window-y="25"
     inkscape:window-maximized="0"
     inkscape:current-layer="svg1075"
     inkscape:document-rotation="0" />
  <path
     style="fill:none;stroke:#336ab4;stroke-width:11.2252;stroke-linecap:square;stroke-linejoin:miter;stroke-miterlimit:4;stroke-dasharray:none;stroke-opacity:1"
     d="m 100.98683,30.135911 -12.026857,-2.68561 c 0,0 -4.32033,26.038737 -6.30535,34.212332 -1.98501,8.173596 -2.91914,17.281315 -8.75742,30.00877 -5.83828,12.727457 -8.87419,14.011877 -14.12864,23.703427 -5.25446,9.69154 -5.72152,12.49392 -7.58977,21.83517 -1.86825,9.34125 -6.42211,36.89794 -7.58977,45.65536 -1.16765,8.75743 -4.43262,22.66041 -6.32345,33.58145 -1.38408,7.99421 -1.14271,8.75355 0.15719,10.57858 2.35561,3.30723 3.27325,5.14221 13.05544,8.85157 9.81403,3.72144 15.64659,5.60475 25.22137,3.50298 9.57479,-2.10179 10.28088,-3.46815 12.49393,-6.77241 2.74625,-4.10038 9.01178,-47.53091 10.880027,-60.84219"
     id="path1519"
     sodipodi:nodetypes="ccssssssssssc" />
</svg>
