<?xml version="1.0" encoding="utf-8"?>
<!-- Generator: Adobe Illustrator 16.0.3, SVG Export Plug-In . SVG Version: 6.00 Build 0)  -->
<!DOCTYPE svg PUBLIC "-//W3C//DTD SVG 1.1//EN" "http://www.w3.org/Graphics/SVG/1.1/DTD/svg11.dtd">
<svg version="1.1" xmlns="http://www.w3.org/2000/svg" xmlns:xlink="http://www.w3.org/1999/xlink" x="0px" y="0px"
	 width="116.814px" height="40px" viewBox="0 0 116.814 40" enable-background="new 0 0 116.814 40" xml:space="preserve">
<g id="Black_Blackground" display="none">
	<rect x="-58.932" y="-28.336" display="inline" stroke="#FFFFFF" stroke-miterlimit="10" width="234.333" height="100.5"/>
</g>
<g id="SemiBold">
	<path d="M116.814,34.245c0,3.548-2.605,5.755-6.152,5.755H6.425C2.876,40,0,37.12,0,33.573V6.426C0,2.877,2.876,0,6.425,0h104.236
		c3.547,0,6.152,2.877,6.152,6.426V34.245z"/>
	<g>
		<g>
			<path fill="#FFFFFF" d="M79.832,28.713l-0.879,0.825c-0.202,0.113-0.404,0.243-0.604,0.334c-0.611,0.277-1.229,0.345-1.781,0.345
				c-0.585,0-1.502-0.037-2.438-0.714c-1.302-0.916-1.872-2.493-1.872-3.867c0-2.842,2.315-4.237,4.202-4.237
				c0.661,0,1.339,0.166,1.89,0.514c0.915,0.605,1.152,1.393,1.284,1.814l-4.311,1.743l-1.414,0.109
				c0.458,2.331,2.034,3.687,3.777,3.687c0.871,0,1.519-0.284,2.109-0.576C79.795,28.689,79.916,28.626,79.832,28.713z
				 M77.229,24.075c0.351-0.127,0.532-0.237,0.532-0.493c0-0.732-0.829-1.578-1.818-1.578c-0.732,0-2.107,0.571-2.107,2.552
				c0,0.31,0.037,0.637,0.057,0.968L77.229,24.075z"/>
			<path fill="#FFFFFF" d="M70.818,28.569c0,0.712,0.125,0.825,0.729,0.88c0.314,0.036,0.627,0.054,0.938,0.089l-0.681,0.405h-3.231
				c0.426-0.549,0.496-0.604,0.496-0.971v-0.41l-0.006-10.903h-1.428l1.374-0.662h2.623c-0.568,0.33-0.737,0.53-0.811,1.171
				L70.818,28.569z"/>
			<path fill="#FFFFFF" d="M65.805,22.299c0.42,0.346,1.299,1.081,1.299,2.474c0,1.356-0.765,1.998-1.537,2.603
				c-0.237,0.238-0.514,0.497-0.514,0.899c0,0.403,0.276,0.625,0.478,0.789l0.661,0.513c0.806,0.679,1.539,1.302,1.539,2.566
				c0,1.728-1.669,3.465-4.824,3.465c-2.656,0-3.942-1.265-3.942-2.62c0-0.663,0.329-1.598,1.415-2.237
				c1.135-0.695,2.678-0.787,3.501-0.844c-0.258-0.33-0.552-0.681-0.552-1.247c0-0.311,0.095-0.498,0.184-0.716
				c-0.201,0.02-0.401,0.04-0.585,0.04c-1.946,0-3.045-1.452-3.045-2.883c0-0.843,0.383-1.778,1.175-2.457
				c1.045-0.861,2.292-1.009,3.282-1.009h3.779l-1.175,0.663H65.805z M64.505,30.439c-0.151-0.02-0.24-0.02-0.422-0.02
				c-0.165,0-1.156,0.037-1.925,0.293c-0.404,0.149-1.58,0.588-1.58,1.891c0,1.3,1.268,2.236,3.227,2.236
				c1.762,0,2.696-0.845,2.696-1.979C66.501,31.925,65.898,31.432,64.505,30.439z M65.032,26.955
				c0.426-0.423,0.462-1.009,0.462-1.339c0-1.32-0.787-3.374-2.312-3.374c-0.474,0-0.99,0.239-1.282,0.607
				c-0.31,0.382-0.401,0.877-0.401,1.354c0,1.229,0.715,3.265,2.292,3.265C64.247,27.469,64.742,27.245,65.032,26.955z"/>
			<path fill="#FFFFFF" d="M54.435,30.18c-2.915,0-4.475-2.27-4.475-4.324c0-2.402,1.961-4.457,4.75-4.457
				c2.697,0,4.383,2.111,4.383,4.327C59.093,27.89,57.424,30.18,54.435,30.18z M56.729,28.696c0.444-0.588,0.551-1.32,0.551-2.033
				c0-1.615-0.771-4.695-3.043-4.695c-0.605,0-1.215,0.236-1.653,0.623c-0.716,0.642-0.844,1.448-0.844,2.239
				c0,1.812,0.896,4.8,3.117,4.8C55.574,29.629,56.305,29.281,56.729,28.696z"/>
			<path fill="#FFFFFF" d="M44.675,30.18c-2.915,0-4.472-2.27-4.472-4.324c0-2.402,1.962-4.457,4.75-4.457
				c2.694,0,4.38,2.111,4.38,4.327C49.333,27.89,47.667,30.18,44.675,30.18z M46.97,28.696c0.439-0.588,0.549-1.32,0.549-2.033
				c0-1.615-0.771-4.695-3.043-4.695c-0.608,0-1.209,0.236-1.65,0.623c-0.718,0.642-0.844,1.448-0.844,2.239
				c0,1.812,0.899,4.8,3.118,4.8C45.815,29.629,46.546,29.281,46.97,28.696z"/>
			<path fill="#FFFFFF" d="M39.038,29.543l-2.458,0.563c-0.997,0.157-1.891,0.295-2.837,0.295c-4.742,0-6.549-3.491-6.549-6.222
				c0-3.336,2.559-6.429,6.944-6.429c0.927,0,1.82,0.137,2.633,0.358c1.289,0.363,1.892,0.808,2.268,1.069l-1.428,1.356
				l-0.602,0.135l0.43-0.685c-0.582-0.567-1.65-1.615-3.679-1.615C31.046,18.369,29,20.43,29,23.44c0,3.232,2.336,6.273,6.083,6.273
				c1.101,0,1.667-0.22,2.182-0.427v-2.771l-2.595,0.141l1.376-0.74h3.642l-0.445,0.43c-0.12,0.103-0.136,0.136-0.17,0.272
				c-0.018,0.156-0.035,0.653-0.035,0.829V29.543z"/>
		</g>
		<g>
			<path fill="#FFFFFF" d="M85.118,28.791v4.67h-0.929V21.576h0.929v1.353c0.603-0.875,1.707-1.567,2.988-1.567
				c2.302,0,3.85,1.745,3.85,4.506c0,2.745-1.548,4.525-3.85,4.525C86.896,30.393,85.811,29.769,85.118,28.791z M90.96,25.867
				c0-2.081-1.086-3.669-3.011-3.669c-1.193,0-2.336,0.939-2.832,1.758v3.805c0.496,0.821,1.639,1.794,2.832,1.794
				C89.875,29.555,90.96,27.952,90.96,25.867z"/>
			<path fill="#FFFFFF" d="M93.224,30.179V18.294h0.928v11.885H93.224z"/>
			<path fill="#FFFFFF" d="M104.559,32.691c0.198,0.089,0.537,0.144,0.752,0.144c0.567,0,0.962-0.231,1.318-1.053l0.677-1.53
				l-3.656-8.676h1.035l3.134,7.518l3.106-7.518h1.048l-4.456,10.497c-0.463,1.08-1.19,1.601-2.189,1.601
				c-0.301,0-0.695-0.054-0.928-0.125L104.559,32.691z"/>
			<path fill="#FFFFFF" d="M101.85,30.153c-0.062-0.3-0.108-0.562-0.142-0.781c-0.029-0.22-0.046-0.442-0.046-0.67
				c-0.318,0.467-0.768,0.855-1.345,1.161c-0.576,0.309-1.123,0.458-1.874,0.458c-0.902,0-1.604-0.222-2.104-0.671
				c-0.5-0.452-0.75-1.062-0.75-1.834c0-0.771,0.364-1.398,1.089-1.876c0.724-0.48,1.66-0.721,2.821-0.721h2.163v-1.069
				c0-0.615-0.21-1.1-0.629-1.451c-0.42-0.352-1.011-0.528-1.775-0.528c-0.7,0-1.268,0.162-1.7,0.479
				c-0.428,0.321-0.642,0.722-0.642,1.204h-0.951l-0.021-0.047c-0.033-0.648,0.266-1.219,0.896-1.711
				c0.629-0.492,1.455-0.739,2.47-0.739c1.009,0,1.828,0.244,2.446,0.729c0.614,0.481,0.925,1.177,0.925,2.084v4.245
				c0,0.305,0.015,0.6,0.052,0.887c0.041,0.287,0.102,0.574,0.185,0.852H101.85z M98.558,29.478c0.788,0,1.354-0.176,1.934-0.524
				c0.574-0.348,0.966-0.798,1.171-1.345v-1.651H99.49c-0.83,0-1.52,0.183-2.061,0.554c-0.539,0.369-0.815,0.816-0.815,1.336
				c0,0.491,0.174,0.884,0.521,1.183C97.479,29.328,97.956,29.478,98.558,29.478z"/>
		</g>
	</g>
	<g>
		<polygon fill="none" points="15.08,25.384 18.056,22.407 18.055,22.407 15.08,25.384 5.583,15.887 5.582,15.887 15.08,25.385 
			5.567,34.898 5.567,34.898 15.08,25.385 18.069,28.375 18.07,28.375 		"/>
		
			<linearGradient id="SVGID_1_" gradientUnits="userSpaceOnUse" x1="487.6597" y1="-487.5078" x2="475.1198" y2="-495.3557" gradientTransform="matrix(0.7071 0.7071 -0.7071 0.7071 -676.4635 24.5138)">
			<stop  offset="0" style="stop-color:#D6FFA1"/>
			<stop  offset="0.3264" style="stop-color:#93E2A7"/>
			<stop  offset="1" style="stop-color:#00A3B5"/>
		</linearGradient>
		<path fill="url(#SVGID_1_)" d="M18.055,22.407L6.459,16.032c-0.328-0.18-0.632-0.222-0.877-0.145l9.497,9.497L18.055,22.407z"/>
		
			<linearGradient id="SVGID_2_" gradientUnits="userSpaceOnUse" x1="480.3677" y1="-494.2129" x2="496.6291" y2="-489.9619" gradientTransform="matrix(0.7071 0.7071 -0.7071 0.7071 -676.4635 24.5138)">
			<stop  offset="0" style="stop-color:#FF177B"/>
			<stop  offset="0.6721" style="stop-color:#FFA976"/>
			<stop  offset="1" style="stop-color:#FFEC73"/>
		</linearGradient>
		<path fill="url(#SVGID_2_)" d="M18.07,28.375l3.958-2.178c0.803-0.443,0.803-1.164,0-1.605l-3.973-2.185l-2.976,2.977
			L18.07,28.375z"/>
		
			<linearGradient id="SVGID_3_" gradientUnits="userSpaceOnUse" x1="489.4448" y1="-481.5552" x2="471.8143" y2="-491.9279" gradientTransform="matrix(0.7071 0.7071 -0.7071 0.7071 -676.4635 24.5138)">
			<stop  offset="0" style="stop-color:#63FFD4"/>
			<stop  offset="0.4854" style="stop-color:#32A0BA"/>
			<stop  offset="0.8349" style="stop-color:#1262A9"/>
			<stop  offset="1" style="stop-color:#064AA2"/>
		</linearGradient>
		<path fill="url(#SVGID_3_)" d="M5.582,15.887C5.229,15.998,5,16.354,5,16.894l0.003,17.001c0,0.533,0.222,0.886,0.563,1.003
			l9.513-9.514L5.582,15.887z"/>
		
			<linearGradient id="SVGID_4_" gradientUnits="userSpaceOnUse" x1="495.8452" y1="-489.792" x2="484.9898" y2="-475.4905" gradientTransform="matrix(0.7071 0.7071 -0.7071 0.7071 -676.4635 24.5138)">
			<stop  offset="0" style="stop-color:#FF4521"/>
			<stop  offset="0.3411" style="stop-color:#D43E65"/>
			<stop  offset="0.7935" style="stop-color:#9F36B9"/>
			<stop  offset="1" style="stop-color:#8A33DB"/>
		</linearGradient>
		<path fill="url(#SVGID_4_)" d="M5.567,34.898c0.247,0.082,0.557,0.044,0.893-0.14l11.609-6.384l-2.989-2.99L5.567,34.898z"/>
	</g>
	<g>
		<g>
			<path fill="#FFFFFF" d="M32.355,11.441l-0.427-1.123h-2.661l-0.427,1.123h-1.157l2.279-5.802h1.27l2.279,5.802H32.355z
				 M30.598,6.656l-1.043,2.767h2.087L30.598,6.656z"/>
			<path fill="#FFFFFF" d="M38.397,11.441l-3.026-4.149v4.149h-1.017V5.639h1.043l2.966,4.019V5.639h1.018v5.802H38.397z"/>
			<path fill="#FFFFFF" d="M40.83,11.441V5.639h2.158c1.816,0,3.035,1.2,3.035,2.897c0,1.712-1.219,2.905-3.028,2.905H40.83z
				 M44.979,8.536c0-1.114-0.697-2.001-1.984-2.001h-1.148v4.01h1.141C44.249,10.545,44.979,9.64,44.979,8.536z"/>
			<path fill="#FFFFFF" d="M50.535,11.441l-1.278-2.167h-1.018v2.167h-1.017V5.639h2.549c1.148,0,1.905,0.74,1.905,1.818
				c0,1.025-0.679,1.592-1.383,1.705l1.426,2.279H50.535z M50.631,7.448c0-0.557-0.417-0.914-0.991-0.914h-1.401v1.844h1.401
				C50.214,8.378,50.631,8.013,50.631,7.448z"/>
			<path fill="#FFFFFF" d="M52.655,8.544c0-1.731,1.226-3,2.967-3c1.729,0,2.966,1.27,2.966,3c0,1.731-1.236,3.001-2.966,3.001
				C53.881,11.545,52.655,10.275,52.655,8.544z M57.543,8.544c0-1.2-0.757-2.096-1.922-2.096c-1.175,0-1.923,0.896-1.923,2.096
				c0,1.192,0.749,2.096,1.923,2.096C56.787,10.64,57.543,9.736,57.543,8.544z"/>
			<path fill="#FFFFFF" d="M59.778,11.441V5.639h1.018v5.802H59.778z"/>
			<path fill="#FFFFFF" d="M62.245,11.441V5.639h2.158c1.818,0,3.036,1.2,3.036,2.897c0,1.712-1.218,2.905-3.026,2.905H62.245z
				 M66.396,8.536c0-1.114-0.697-2.001-1.983-2.001h-1.15v4.01h1.141C65.666,10.545,66.396,9.64,66.396,8.536z"/>
			<path fill="#FFFFFF" d="M75.169,11.441l-0.428-1.123h-2.661l-0.426,1.123h-1.158l2.279-5.802h1.271l2.278,5.802H75.169z
				 M73.411,6.656l-1.043,2.767h2.087L73.411,6.656z"/>
			<path fill="#FFFFFF" d="M77.165,11.441V5.639h2.56c1.216,0,1.886,0.827,1.886,1.818c0,0.982-0.678,1.809-1.886,1.809h-1.542
				v2.175H77.165z M80.566,7.457c0-0.557-0.408-0.922-0.982-0.922h-1.401V8.37h1.401C80.158,8.37,80.566,8.005,80.566,7.457z"/>
			<path fill="#FFFFFF" d="M82.678,11.441V5.639h2.558c1.218,0,1.888,0.827,1.888,1.818c0,0.982-0.678,1.809-1.888,1.809h-1.54
				v2.175H82.678z M86.08,7.457c0-0.557-0.409-0.922-0.983-0.922h-1.4V8.37h1.4C85.67,8.37,86.08,8.005,86.08,7.457z"/>
			<path fill="#FFFFFF" d="M90.398,8.544c0-1.731,1.229-3,2.967-3c1.731,0,2.966,1.27,2.966,3c0,1.731-1.234,3.001-2.966,3.001
				C91.626,11.545,90.398,10.275,90.398,8.544z M95.288,8.544c0-1.2-0.757-2.096-1.923-2.096c-1.175,0-1.921,0.896-1.921,2.096
				c0,1.192,0.746,2.096,1.921,2.096C94.531,10.64,95.288,9.736,95.288,8.544z"/>
			<path fill="#FFFFFF" d="M101.564,11.441l-3.026-4.149v4.149h-1.017V5.639h1.044l2.966,4.019V5.639h1.018v5.802H101.564z"/>
		</g>
	</g>
</g>
</svg>
